{
date = "2013-05-07 17:01:52 +0000";
designer = "Shinji Pons";
designerURL = www.shinjipons.com;
familyName = "Modulo 12";
fontMaster = (
{
alignmentZones = (
"{1280, 10}",
"{0, -10}"
);
ascender = 1280;
capHeight = 1280;
customParameters = (
{
name = familyName;
value = "Modulo 12";
}
);
descender = 0;
guideLines = (
{
position = "{1550, 700}";
},
{
angle = 90;
position = "{1240, -207}";
},
{
angle = 90;
position = "{80, -159}";
},
{
position = "{1545, 1160}";
},
{
angle = 90;
position = "{780, -142}";
},
{
angle = 90;
position = "{1360, -194}";
},
{
position = "{1534, 580}";
},
{
position = "{1595, 120}";
},
{
angle = 90;
position = "{200, -105}";
},
{
angle = 90;
position = "{660, -80}";
}
);
horizontalStems = (
120
);
id = "940E2F63-624A-4C3D-A909-721782B4CF41";
verticalStems = (
120
);
weightValue = 12;
widthValue = 128;
xHeight = 1280;
}
);
glyphs = (
{
glyphname = A;
lastChange = "2014-01-05 14:07:51 +0000";
layers = (
{
layerId = "940E2F63-624A-4C3D-A909-721782B4CF41";
name = Regular;
paths = (
{
closed = 1;
nodes = (
"200 1280 LINE",
"80 1160 LINE",
"1240 1160 LINE",
"1240 120 LINE",
"200 120 LINE",
"200 580 LINE",
"780 580 LINE",
"660 700 LINE",
"200 700 LINE",
"80 580 LINE",
"80 120 LINE",
"200 0 LINE",
"1240 0 LINE",
"1360 120 LINE",
"1360 1160 LINE",
"1240 1280 LINE"
);
}
);
width = 1440;
}
);
unicode = 0041;
},
{
glyphname = B;
lastChange = "2014-01-05 14:07:50 +0000";
layers = (
{
layerId = "940E2F63-624A-4C3D-A909-721782B4CF41";
name = Regular;
paths = (
{
closed = 1;
nodes = (
"200 1280 LINE",
"80 1160 LINE",
"80 120 LINE",
"200 0 LINE",
"200 1160 LINE",
"1240 1160 LINE",
"1240 700 LINE",
"660 700 LINE",
"780 580 LINE",
"1240 580 LINE",
"1240 120 LINE",
"660 120 LINE",
"780 0 LINE",
"1240 0 LINE",
"1360 120 LINE",
"1360 1160 LINE",
"1240 1280 LINE"
);
}
);
width = 1440;
}
);
unicode = 0042;
},
{
glyphname = C;
lastChange = "2014-01-05 14:07:51 +0000";
layers = (
{
layerId = "940E2F63-624A-4C3D-A909-721782B4CF41";
name = Regular;
paths = (
{
closed = 1;
nodes = (
"200 1280 LINE",
"80 1160 LINE",
"80 120 LINE",
"200 0 LINE",
"1240 0 LINE",
"1360 120 LINE",
"200 120 LINE",
"200 1160 LINE",
"1360 1160 LINE",
"1240 1280 LINE"
);
}
);
width = 1440;
}
);
unicode = 0043;
},
{
glyphname = D;
lastChange = "2014-01-05 14:07:50 +0000";
layers = (
{
layerId = "940E2F63-624A-4C3D-A909-721782B4CF41";
name = Regular;
paths = (
{
closed = 1;
nodes = (
"200 1280 LINE",
"80 1160 LINE",
"1240 1160 LINE",
"1240 120 LINE",
"200 120 LINE",
"200 700 LINE",
"80 580 LINE",
"80 120 LINE",
"200 0 LINE",
"1240 0 LINE",
"1360 120 LINE",
"1360 1160 LINE",
"1240 1280 LINE"
);
}
);
width = 1440;
}
);
unicode = 0044;
},
{
glyphname = E;
lastChange = "2014-01-05 14:07:50 +0000";
layers = (
{
layerId = "940E2F63-624A-4C3D-A909-721782B4CF41";
name = Regular;
paths = (
{
closed = 1;
nodes = (
"780 1280 LINE",
"660 1160 LINE",
"1240 1160 LINE",
"1240 700 LINE",
"200 700 LINE",
"200 1280 LINE",
"80 1160 LINE",
"80 120 LINE",
"200 0 LINE",
"1240 0 LINE",
"1360 120 LINE",
"200 120 LINE",
"200 580 LINE",
"1240 580 LINE",
"1360 700 LINE",
"1360 1160 LINE",
"1240 1280 LINE"
);
}
);
width = 1440;
}
);
unicode = 0045;
},
{
glyphname = F;
lastChange = "2014-01-05 14:07:50 +0000";
layers = (
{
layerId = "940E2F63-624A-4C3D-A909-721782B4CF41";
name = Regular;
paths = (
{
closed = 1;
nodes = (
"200 1280 LINE",
"80 1160 LINE",
"80 120 LINE",
"200 0 LINE",
"200 580 LINE",
"1240 580 LINE",
"1360 700 LINE",
"200 700 LINE",
"200 1160 LINE",
"1360 1160 LINE",
"1239 1280 LINE"
);
}
);
width = 1440;
}
);
unicode = 0046;
},
{
glyphname = H;
lastChange = "2014-01-05 14:07:50 +0000";
layers = (
{
layerId = "940E2F63-624A-4C3D-A909-721782B4CF41";
name = Regular;
paths = (
{
closed = 1;
nodes = (
"1240 700 LINE",
"200 700 LINE",
"200 1280 LINE",
"80 1160 LINE",
"80 120 LINE",
"200 0 LINE",
"200 580 LINE",
"1240 580 LINE",
"1240 0 LINE",
"1360 120 LINE",
"1360 1160 LINE",
"1240 1280 LINE"
);
}
);
width = 1440;
}
);
unicode = 0048;
},
{
glyphname = J;
lastChange = "2014-01-05 14:07:50 +0000";
layers = (
{
layerId = "940E2F63-624A-4C3D-A909-721782B4CF41";
name = Regular;
paths = (
{
closed = 1;
nodes = (
"780 1280 LINE",
"660 1160 LINE",
"1240 1160 LINE",
"1240 120 LINE",
"80 120 LINE",
"200 0 LINE",
"1240 0 LINE",
"1360 120 LINE",
"1360 1160 LINE",
"1240 1280 LINE"
);
}
);
width = 1440;
}
);
unicode = 004A;
},
{
glyphname = K;
lastChange = "2014-01-05 14:07:50 +0000";
layers = (
{
layerId = "940E2F63-624A-4C3D-A909-721782B4CF41";
name = Regular;
paths = (
{
closed = 1;
nodes = (
"780 1280 LINE",
"660 1160 LINE",
"660 700 LINE",
"200 700 LINE",
"200 1280 LINE",
"80 1160 LINE",
"80 120 LINE",
"200 0 LINE",
"200 580 LINE",
"1240 580 LINE",
"1240 0 LINE",
"1360 120 LINE",
"1360 580 LINE",
"1240 700 LINE",
"780 700 LINE",
"780 1160 LINE",
"1360 1160 LINE",
"1240 1280 LINE"
);
}
);
width = 1440;
}
);
unicode = 004B;
},
{
glyphname = L;
lastChange = "2014-01-05 14:07:50 +0000";
layers = (
{
layerId = "940E2F63-624A-4C3D-A909-721782B4CF41";
name = Regular;
paths = (
{
closed = 1;
nodes = (
"80 1160 LINE",
"80 120 LINE",
"200 0 LINE",
"1240 0 LINE",
"1360 120 LINE",
"200 120 LINE",
"200 1280 LINE"
);
}
);
width = 1440;
}
);
unicode = 004C;
},
{
glyphname = M;
lastChange = "2014-01-05 14:07:50 +0000";
layers = (
{
layerId = "940E2F63-624A-4C3D-A909-721782B4CF41";
name = Regular;
paths = (
{
closed = 1;
nodes = (
"200 1280 LINE",
"80 1160 LINE",
"80 120 LINE",
"200 0 LINE",
"200 1160 LINE",
"660 1160 LINE",
"660 120 LINE",
"780 0 LINE",
"780 1160 LINE",
"1240 1160 LINE",
"1240 0 LINE",
"1360 120 LINE",
"1360 1160 LINE",
"1240 1280 LINE"
);
}
);
width = 1440;
}
);
unicode = 004D;
},
{
glyphname = N;
lastChange = "2014-01-05 14:07:50 +0000";
layers = (
{
layerId = "940E2F63-624A-4C3D-A909-721782B4CF41";
name = Regular;
paths = (
{
closed = 1;
nodes = (
"1240 120 LINE",
"780 120 LINE",
"780 1160 LINE",
"660 1280 LINE",
"200 1280 LINE",
"80 1160 LINE",
"80 120 LINE",
"200 0 LINE",
"200 1160 LINE",
"660 1160 LINE",
"660 120 LINE",
"780 0 LINE",
"1240 0 LINE",
"1360 120 LINE",
"1360 1160 LINE",
"1240 1280 LINE"
);
}
);
width = 1440;
}
);
unicode = 004E;
},
{
glyphname = O;
lastChange = "2014-01-05 14:07:51 +0000";
layers = (
{
layerId = "940E2F63-624A-4C3D-A909-721782B4CF41";
name = Regular;
paths = (
{
closed = 1;
nodes = (
"200 1280 LINE",
"80 1160 LINE",
"80 120 LINE",
"200 0 LINE",
"1240 0 LINE",
"1360 120 LINE",
"1360 1160 LINE",
"1240 1280 LINE"
);
},
{
closed = 1;
nodes = (
"1240 120 LINE",
"200 120 LINE",
"200 1160 LINE",
"1240 1160 LINE"
);
}
);
width = 1440;
}
);
unicode = 004F;
},
{
glyphname = P;
lastChange = "2014-01-05 14:07:51 +0000";
layers = (
{
layerId = "940E2F63-624A-4C3D-A909-721782B4CF41";
name = Regular;
paths = (
{
closed = 1;
nodes = (
"200 1280 LINE",
"80 1160 LINE",
"80 120 LINE",
"200 0 LINE",
"200 1160 LINE",
"1240 1160 LINE",
"1240 700 LINE",
"660 700 LINE",
"780 580 LINE",
"1240 580 LINE",
"1360 700 LINE",
"1360 1160 LINE",
"1240 1280 LINE"
);
}
);
width = 1440;
}
);
unicode = 0050;
},
{
glyphname = Q;
lastChange = "2014-01-05 14:07:51 +0000";
layers = (
{
layerId = "940E2F63-624A-4C3D-A909-721782B4CF41";
name = Regular;
paths = (
{
closed = 1;
nodes = (
"200 1280 LINE",
"80 1160 LINE",
"80 120 LINE",
"200 0 LINE",
"1240 0 LINE",
"1360 120 LINE",
"1360 1160 LINE",
"1240 1280 LINE"
);
},
{
closed = 1;
nodes = (
"1240 120 LINE",
"780 120 LINE",
"780 580 LINE",
"660 700 LINE",
"660 120 LINE",
"200 120 LINE",
"200 1160 LINE",
"1240 1160 LINE"
);
}
);
width = 1440;
}
);
unicode = 0051;
},
{
glyphname = R;
lastChange = "2014-01-05 14:07:51 +0000";
layers = (
{
layerId = "940E2F63-624A-4C3D-A909-721782B4CF41";
name = Regular;
paths = (
{
closed = 1;
nodes = (
"200 1280 LINE",
"80 1160 LINE",
"80 120 LINE",
"200 0 LINE",
"200 1160 LINE",
"1240 1160 LINE",
"1240 700 LINE",
"780 700 LINE",
"660 580 LINE",
"660 120 LINE",
"780 0 LINE",
"1240 0 LINE",
"1360 120 LINE",
"780 120 LINE",
"780 580 LINE",
"1240 580 LINE",
"1360 700 LINE",
"1360 1160 LINE",
"1240 1280 LINE"
);
}
);
width = 1440;
}
);
unicode = 0052;
},
{
glyphname = T;
lastChange = "2014-01-05 14:07:51 +0000";
layers = (
{
layerId = "940E2F63-624A-4C3D-A909-721782B4CF41";
name = Regular;
paths = (
{
closed = 1;
nodes = (
"200 1280 LINE",
"80 1160 LINE",
"660 1160 LINE",
"660 120 LINE",
"780 0 LINE",
"780 1160 LINE",
"1360 1160 LINE",
"1240 1280 LINE"
);
}
);
width = 1440;
}
);
unicode = 0054;
},
{
glyphname = V;
lastChange = "2014-01-05 14:07:51 +0000";
layers = (
{
layerId = "940E2F63-624A-4C3D-A909-721782B4CF41";
name = Regular;
paths = (
{
closed = 1;
nodes = (
"1240 700 LINE",
"780 700 LINE",
"660 580 LINE",
"660 120 LINE",
"200 120 LINE",
"200 1280 LINE",
"80 1160 LINE",
"80 120 LINE",
"200 0 LINE",
"660 0 LINE",
"780 120 LINE",
"780 580 LINE",
"1240 580 LINE",
"1360 700 LINE",
"1360 1160 LINE",
"1240 1280 LINE"
);
}
);
width = 1440;
}
);
unicode = 0056;
},
{
glyphname = X;
lastChange = "2014-01-05 14:07:51 +0000";
layers = (
{
layerId = "940E2F63-624A-4C3D-A909-721782B4CF41";
name = Regular;
paths = (
{
closed = 1;
nodes = (
"200 1280 LINE",
"80 1160 LINE",
"80 700 LINE",
"200 580 LINE",
"200 1160 LINE",
"660 1160 LINE",
"660 120 LINE",
"80 120 LINE",
"200 0 LINE",
"1240 0 LINE",
"1360 120 LINE",
"1360 580 LINE",
"1240 700 LINE",
"1240 120 LINE",
"780 120 LINE",
"780 1160 LINE",
"1360 1160 LINE",
"1240 1280 LINE"
);
}
);
width = 1440;
}
);
unicode = 0058;
},
{
glyphname = Y;
lastChange = "2014-01-05 14:07:51 +0000";
layers = (
{
layerId = "940E2F63-624A-4C3D-A909-721782B4CF41";
name = Regular;
paths = (
{
closed = 1;
nodes = (
"1240 700 LINE",
"200 700 LINE",
"200 1280 LINE",
"80 1160 LINE",
"80 700 LINE",
"200 580 LINE",
"1240 580 LINE",
"1240 120 LINE",
"80 120 LINE",
"200 0 LINE",
"1240 0 LINE",
"1360 120 LINE",
"1360 1160 LINE",
"1240 1280 LINE"
);
}
);
width = 1440;
}
);
unicode = 0059;
},
{
glyphname = zero;
lastChange = "2014-01-05 14:07:51 +0000";
layers = (
{
components = (
{
name = O;
transform = "{1, 0, 0, 1, 0, 0}";
}
);
layerId = "940E2F63-624A-4C3D-A909-721782B4CF41";
name = Regular;
paths = (
{
closed = 1;
nodes = (
"660 700 LINE",
"660 580 LINE",
"780 700 LINE"
);
}
);
width = 1440;
}
);
unicode = 0030;
},
{
glyphname = one;
lastChange = "2014-01-05 14:07:51 +0000";
layers = (
{
layerId = "940E2F63-624A-4C3D-A909-721782B4CF41";
name = Regular;
paths = (
{
closed = 1;
nodes = (
"200 1280 LINE",
"80 1160 LINE",
"660 1160 LINE",
"660 120 LINE",
"80 120 LINE",
"200 0 LINE",
"1240 0 LINE",
"1360 120 LINE",
"780 120 LINE",
"780 1160 LINE",
"660 1280 LINE"
);
}
);
width = 1440;
}
);
unicode = 0031;
},
{
glyphname = four;
lastChange = "2014-01-05 14:07:51 +0000";
layers = (
{
layerId = "940E2F63-624A-4C3D-A909-721782B4CF41";
name = Regular;
paths = (
{
closed = 1;
nodes = (
"1240 700 LINE",
"200 700 LINE",
"200 1280 LINE",
"80 1160 LINE",
"80 700 LINE",
"200 580 LINE",
"1240 580 LINE",
"1240 0 LINE",
"1360 120 LINE",
"1360 1160 LINE",
"1240 1280 LINE"
);
}
);
width = 1440;
}
);
unicode = 0034;
},
{
glyphname = seven;
lastChange = "2014-01-05 14:07:51 +0000";
layers = (
{
layerId = "940E2F63-624A-4C3D-A909-721782B4CF41";
name = Regular;
paths = (
{
closed = 1;
nodes = (
"200 1280 LINE",
"80 1160 LINE",
"1240 1160 LINE",
"1240 700 LINE",
"780 700 LINE",
"660 580 LINE",
"660 120 LINE",
"780 0 LINE",
"780 580 LINE",
"1240 580 LINE",
"1360 700 LINE",
"1360 1160 LINE",
"1240 1280 LINE"
);
}
);
width = 1440;
}
);
unicode = 0037;
},
{
glyphname = eight;
lastChange = "2014-01-05 14:07:51 +0000";
layers = (
{
layerId = "940E2F63-624A-4C3D-A909-721782B4CF41";
name = Regular;
paths = (
{
closed = 1;
nodes = (
"200 1280 LINE",
"80 1160 LINE",
"80 120 LINE",
"200 0 LINE",
"1240 0 LINE",
"1360 120 LINE",
"1360 1160 LINE",
"1240 1280 LINE"
);
},
{
closed = 1;
nodes = (
"1240 120 LINE",
"200 120 LINE",
"200 580 LINE",
"1240 580 LINE"
);
},
{
closed = 1;
nodes = (
"1240 700 LINE",
"200 700 LINE",
"200 1160 LINE",
"1240 1160 LINE"
);
}
);
width = 1440;
}
);
unicode = 0038;
},
{
glyphname = asterisk;
lastChange = "2014-01-05 14:07:51 +0000";
layers = (
{
components = (
{
name = plus;
transform = "{1, 0, 0, 1, 0, 0}";
}
);
layerId = "940E2F63-624A-4C3D-A909-721782B4CF41";
name = Regular;
paths = (
{
closed = 1;
nodes = (
"1240 1160 LINE",
"1360 1160 LINE",
"1240 1280 LINE"
);
},
{
closed = 1;
nodes = (
"80 120 LINE",
"200 0 LINE",
"200 120 LINE"
);
},
{
closed = 1;
nodes = (
"1240 120 LINE",
"1240 0 LINE",
"1360 120 LINE"
);
},
{
closed = 1;
nodes = (
"80 1160 LINE",
"200 1160 LINE",
"200 1280 LINE"
);
}
);
width = 1440;
}
);
unicode = 002A;
},
{
color = 5;
glyphname = backslash;
lastChange = "2014-01-05 14:07:51 +0000";
layers = (
{
layerId = "940E2F63-624A-4C3D-A909-721782B4CF41";
name = Regular;
paths = (
{
closed = 1;
nodes = (
"1240 0 LINE",
"1360 120 LINE",
"1360 1160 LINE",
"1240 1280 LINE"
);
},
{
closed = 1;
nodes = (
"80 1160 LINE",
"80 120 LINE",
"200 0 LINE",
"200 1280 LINE"
);
},
{
closed = 1;
nodes = (
"660 120 LINE",
"780 0 LINE",
"780 1160 LINE",
"660 1280 LINE"
);
}
);
width = 1440;
}
);
unicode = 005C;
},
{
glyphname = bullet;
lastChange = "2014-01-05 14:07:51 +0000";
layers = (
{
layerId = "940E2F63-624A-4C3D-A909-721782B4CF41";
name = Regular;
paths = (
{
closed = 1;
nodes = (
"200 1280 LINE",
"80 1160 LINE",
"1360 1160 LINE",
"1240 1280 LINE"
);
},
{
closed = 1;
nodes = (
"80 120 LINE",
"200 0 LINE",
"1240 0 LINE",
"1360 120 LINE"
);
},
{
closed = 1;
nodes = (
"200 700 LINE",
"80 580 LINE",
"1240 580 LINE",
"1360 700 LINE"
);
}
);
width = 1440;
}
);
unicode = 2022;
},
{
glyphname = comma;
lastChange = "2014-01-05 14:07:51 +0000";
layers = (
{
layerId = "940E2F63-624A-4C3D-A909-721782B4CF41";
name = Regular;
paths = (
{
closed = 1;
nodes = (
"200 1280 LINE",
"80 1160 LINE",
"80 120 LINE",
"200 0 LINE",
"1240 0 LINE",
"1360 120 LINE",
"1360 1160 LINE",
"1240 1280 LINE"
);
}
);
width = 1440;
}
);
unicode = 002C;
},
{
glyphname = ellipsis;
lastChange = "2014-01-05 14:07:51 +0000";
layers = (
{
layerId = "940E2F63-624A-4C3D-A909-721782B4CF41";
name = Regular;
paths = (
{
closed = 1;
nodes = (
"200 1280 LINE",
"80 1160 LINE",
"1360 1160 LINE",
"1240 1280 LINE"
);
},
{
closed = 1;
nodes = (
"80 120 LINE",
"200 0 LINE",
"200 120 LINE"
);
},
{
closed = 1;
nodes = (
"660 120 LINE",
"780 0 LINE",
"780 120 LINE"
);
},
{
closed = 1;
nodes = (
"1240 120 LINE",
"1240 0 LINE",
"1360 120 LINE"
);
},
{
closed = 1;
nodes = (
"200 700 LINE",
"80 580 LINE",
"1240 580 LINE",
"1360 700 LINE"
);
}
);
width = 1440;
}
);
unicode = 2026;
},
{
glyphname = exclam;
lastChange = "2014-01-05 14:07:51 +0000";
layers = (
{
layerId = "940E2F63-624A-4C3D-A909-721782B4CF41";
name = Regular;
paths = (
{
closed = 1;
nodes = (
"1240 580 LINE",
"1360 700 LINE",
"1360 1160 LINE",
"1240 1280 LINE"
);
},
{
closed = 1;
nodes = (
"80 120 LINE",
"200 0 LINE",
"200 120 LINE"
);
},
{
closed = 1;
nodes = (
"660 120 LINE",
"780 0 LINE",
"780 120 LINE"
);
},
{
closed = 1;
nodes = (
"80 1160 LINE",
"80 700 LINE",
"200 580 LINE",
"200 1280 LINE"
);
},
{
closed = 1;
nodes = (
"1240 120 LINE",
"1240 0 LINE",
"1360 120 LINE"
);
},
{
closed = 1;
nodes = (
"660 700 LINE",
"780 580 LINE",
"780 1160 LINE",
"660 1280 LINE"
);
}
);
width = 1440;
}
);
unicode = 0021;
},
{
glyphname = numbersign;
lastChange = "2014-01-05 14:07:51 +0000";
layers = (
{
layerId = "940E2F63-624A-4C3D-A909-721782B4CF41";
name = Regular;
paths = (
{
closed = 1;
nodes = (
"200 1280 LINE",
"80 1160 LINE",
"80 120 LINE",
"200 0 LINE",
"1240 0 LINE",
"1360 120 LINE",
"1360 1160 LINE",
"1240 1280 LINE"
);
},
{
closed = 1;
nodes = (
"660 120 LINE",
"200 120 LINE",
"200 580 LINE",
"660 580 LINE"
);
},
{
closed = 1;
nodes = (
"660 700 LINE",
"200 700 LINE",
"200 1160 LINE",
"660 1160 LINE"
);
},
{
closed = 1;
nodes = (
"1240 120 LINE",
"780 120 LINE",
"780 580 LINE",
"1240 580 LINE"
);
},
{
closed = 1;
nodes = (
"1240 700 LINE",
"780 700 LINE",
"780 1160 LINE",
"1240 1160 LINE"
);
}
);
width = 1440;
}
);
unicode = 0023;
},
{
glyphname = question;
lastChange = "2014-01-05 14:07:51 +0000";
layers = (
{
layerId = "940E2F63-624A-4C3D-A909-721782B4CF41";
name = Regular;
paths = (
{
closed = 1;
nodes = (
"200 1280 LINE",
"80 1160 LINE",
"1240 1160 LINE",
"1240 700 LINE",
"780 700 LINE",
"660 580 LINE",
"1240 580 LINE",
"1360 700 LINE",
"1360 1160 LINE",
"1240 1280 LINE"
);
},
{
closed = 1;
nodes = (
"660 120 LINE",
"780 0 LINE",
"780 120 LINE"
);
}
);
width = 1440;
}
);
unicode = 003F;
},
{
glyphname = braceleft;
lastChange = "2014-01-05 14:07:51 +0000";
layers = (
{
layerId = "940E2F63-624A-4C3D-A909-721782B4CF41";
name = Regular;
paths = (
{
closed = 1;
nodes = (
"780 1280 LINE",
"660 1160 LINE",
"660 700 LINE",
"200 700 LINE",
"80 580 LINE",
"660 580 LINE",
"660 120 LINE",
"780 0 LINE",
"1240 0 LINE",
"1360 120 LINE",
"780 120 LINE",
"780 1160 LINE",
"1360 1160 LINE",
"1240 1280 LINE"
);
}
);
width = 1440;
}
);
unicode = 007B;
},
{
glyphname = braceright;
lastChange = "2014-01-05 14:07:51 +0000";
layers = (
{
layerId = "940E2F63-624A-4C3D-A909-721782B4CF41";
name = Regular;
paths = (
{
closed = 1;
nodes = (
"200 1280 LINE",
"80 1160 LINE",
"660 1160 LINE",
"660 120 LINE",
"80 120 LINE",
"200 0 LINE",
"660 0 LINE",
"780 120 LINE",
"780 580 LINE",
"1240 580 LINE",
"1360 700 LINE",
"780 700 LINE",
"780 1160 LINE",
"660 1280 LINE"
);
}
);
width = 1440;
}
);
unicode = 007D;
},
{
color = 0;
glyphname = dollar;
lastChange = "2014-01-05 14:07:51 +0000";
layers = (
{
components = (
{
name = s;
transform = "{1, 0, 0, 1, 14, 0}";
}
);
layerId = "940E2F63-624A-4C3D-A909-721782B4CF41";
name = Regular;
paths = (
{
closed = 1;
nodes = (
"660 1280 LINE",
"660 0 LINE",
"780 0 LINE",
"780 1280 LINE"
);
}
);
width = 1440;
}
);
unicode = 0024;
},
{
color = 0;
glyphname = euro;
lastChange = "2014-01-05 14:07:51 +0000";
layers = (
{
components = (
{
name = braceleft;
transform = "{1, 0, 0, 1, 0, 0}";
}
);
layerId = "940E2F63-624A-4C3D-A909-721782B4CF41";
name = Regular;
paths = (
{
closed = 1;
nodes = (
"690 700 LINE",
"690 580 LINE",
"1240 580 LINE",
"1360 700 LINE"
);
}
);
width = 1440;
}
);
unicode = 20AC;
},
{
glyphname = divide;
lastChange = "2014-01-05 14:07:51 +0000";
layers = (
{
layerId = "940E2F63-624A-4C3D-A909-721782B4CF41";
name = Regular;
paths = (
{
closed = 1;
nodes = (
"200 700 LINE",
"80 580 LINE",
"1240 580 LINE",
"1360 700 LINE"
);
},
{
closed = 1;
nodes = (
"660 120 LINE",
"660 0 LINE",
"780 120 LINE"
);
},
{
closed = 1;
nodes = (
"660 1160 LINE",
"780 1160 LINE",
"780 1280 LINE"
);
}
);
width = 1440;
}
);
unicode = 00F7;
},
{
color = 0;
glyphname = percent;
lastChange = "2014-01-05 14:07:51 +0000";
layers = (
{
layerId = "940E2F63-624A-4C3D-A909-721782B4CF41";
name = Regular;
paths = (
{
closed = 1;
nodes = (
"1240 700 LINE",
"200 700 LINE",
"80 580 LINE",
"80 120 LINE",
"200 0 LINE",
"200 580 LINE",
"1240 580 LINE",
"1360 700 LINE",
"1360 1160 LINE",
"1240 1280 LINE"
);
},
{
closed = 1;
nodes = (
"660 120 LINE",
"780 0 LINE",
"1240 0 LINE",
"1360 120 LINE"
);
},
{
closed = 1;
nodes = (
"200 1280 LINE",
"80 1160 LINE",
"780 1160 LINE",
"660 1280 LINE"
);
}
);
width = 1440;
}
);
unicode = 0025;
},
{
glyphname = plus;
lastChange = "2014-01-05 14:07:51 +0000";
layers = (
{
layerId = "940E2F63-624A-4C3D-A909-721782B4CF41";
name = Regular;
paths = (
{
closed = 1;
nodes = (
"660 700 LINE",
"200 700 LINE",
"80 580 LINE",
"660 580 LINE",
"660 120 LINE",
"780 0 LINE",
"780 580 LINE",
"1240 580 LINE",
"1360 700 LINE",
"780 700 LINE",
"780 1160 LINE",
"660 1280 LINE"
);
}
);
width = 1440;
}
);
unicode = 002B;
},
{
glyphname = ampersand;
lastChange = "2014-01-05 14:07:51 +0000";
layers = (
{
layerId = "940E2F63-624A-4C3D-A909-721782B4CF41";
name = Regular;
paths = (
{
closed = 1;
nodes = (
"780 1280 LINE",
"660 1160 LINE",
"660 700 LINE",
"200 700 LINE",
"80 580 LINE",
"80 120 LINE",
"200 0 LINE",
"1240 0 LINE",
"1360 120 LINE",
"200 120 LINE",
"200 580 LINE",
"1240 580 LINE",
"1360 700 LINE",
"1360 1160 LINE",
"1240 1280 LINE"
);
},
{
closed = 1;
nodes = (
"1240 700 LINE",
"780 700 LINE",
"780 1160 LINE",
"1240 1160 LINE"
);
}
);
width = 1440;
}
);
unicode = 0026;
},
{
glyphname = degree;
lastChange = "2014-01-05 14:07:51 +0000";
layers = (
{
layerId = "940E2F63-624A-4C3D-A909-721782B4CF41";
name = Regular;
paths = (
{
closed = 1;
nodes = (
"1240 120 LINE",
"660 120 LINE",
"780 0 LINE",
"1240 0 LINE",
"1360 120 LINE",
"1360 580 LINE",
"1240 700 LINE"
);
},
{
closed = 1;
nodes = (
"200 1280 LINE",
"80 1160 LINE",
"80 700 LINE",
"200 580 LINE",
"660 580 LINE",
"780 700 LINE",
"780 1160 LINE",
"660 1280 LINE"
);
},
{
closed = 1;
nodes = (
"660 700 LINE",
"200 700 LINE",
"200 1160 LINE",
"660 1160 LINE"
);
}
);
width = 1440;
}
);
unicode = 00B0;
},
